<svg id="icon" height="512" viewBox="0 0 128 128" width="512" xmlns="http://www.w3.org/2000/svg"><path d="m106.876 51.153a23.223 23.223 0 0 0 -23.727-25.507 23.137 23.137 0 0 0 -11.717 3.512 23.251 23.251 0 0 0 -43.3 14.972c-.072 0-.142 0-.214 0a27.609 27.609 0 1 0 20.235 47.089 23.257 23.257 0 0 0 39.29-.434 23.256 23.256 0 1 0 19.433-39.632z" fill="#f0f5f9"/><path d="m104.324 97.451a23.212 23.212 0 0 1 -16.885-6.663 23.254 23.254 0 0 1 -39.283.436 27.619 27.619 0 0 1 -46.839-23.7 27.6 27.6 0 0 0 46.839 15.348 23.253 23.253 0 0 0 39.283-.435 23.257 23.257 0 0 0 39.178-12.4 22.029 22.029 0 0 1 .371 3.581 23.248 23.248 0 0 1 -22.664 23.833z" fill="#d9e2e9"/><path d="m38.026 50.372a.994.994 0 0 1 -.659-.248 23.044 23.044 0 0 0 -9.638-5.012 1 1 0 0 1 .38-1.964 24.788 24.788 0 0 1 10.577 5.472 1 1 0 0 1 -.66 1.752z" fill="#2f3a5a"/><path d="m94.426 28.628s14.712 9.955 3.022 23.953a3.362 3.362 0 0 1 .356.35c3.383-2.2 3.657-1.234 8.524-1.781 0 0 3.323-16.282-11.902-22.522z" fill="#d9e2e9"/><path d="m67.645 102.813a24.089 24.089 0 0 1 -19.645-10.055 28.6 28.6 0 1 1 -21.009-49.591c-.082-.719-.133-1.429-.15-2.121a24.258 24.258 0 0 1 44.946-13.263 24.252 24.252 0 0 1 11.337-3.137c.2-.005.412-.008.615-.008a24.287 24.287 0 0 1 24.244 23.653c.017.659 0 1.325-.037 2.015a24.259 24.259 0 1 1 -20.318 42.022 24.194 24.194 0 0 1 -19.358 10.478c-.209.005-.418.007-.625.007zm-19.328-13.175.674 1.036a22.256 22.256 0 0 0 37.6-.416l.659-1.063.893.876a22.256 22.256 0 1 0 18.6-37.927l-.953-.129.092-.957a22.255 22.255 0 0 0 -33.921-21.052l-.893.558-.51-.92a22.258 22.258 0 0 0 -41.717 11.356 22.472 22.472 0 0 0 .279 2.976l.183 1.142-1.169.016h-.108a26.608 26.608 0 1 0 19.419 45.379z" fill="#2f3a5a"/><path d="m98.19 53.582a1 1 0 0 1 -.327-1.946 27.671 27.671 0 0 1 9.047-1.483 1 1 0 0 1 -.065 2 26.242 26.242 0 0 0 -8.327 1.374 1.019 1.019 0 0 1 -.328.055z" fill="#2f3a5a"/><path d="m85.435 83.88-17.876-22.287-17.876 22.287h10.009v26.94h15.734v-26.94z" fill="#ef5361"/><path d="m75.426 111.82h-15.735a1 1 0 0 1 -1-1v-25.94h-9.007a1 1 0 0 1 -.781-1.626l17.875-22.287a1.036 1.036 0 0 1 1.561 0l17.876 22.287a1 1 0 0 1 -.78 1.626h-9.009v25.94a1 1 0 0 1 -1 1zm-14.735-2h13.735v-25.94a1 1 0 0 1 1-1h7.925l-15.792-19.689-15.791 19.689h7.923a1 1 0 0 1 1 1z" fill="#2f3a5a"/></svg>