<svg id="icon" height="512" viewBox="0 0 128 128" width="512" xmlns="http://www.w3.org/2000/svg"><path d="m106.876 38.981a23.223 23.223 0 0 0 -23.727-25.507 23.147 23.147 0 0 0 -11.717 3.513 23.25 23.25 0 0 0 -43.3 14.971c-.072 0-.142 0-.214 0a27.609 27.609 0 1 0 20.234 47.09 23.258 23.258 0 0 0 39.29-.435 23.256 23.256 0 1 0 19.433-39.632z" fill="#f0f5f9"/><path d="m104.324 85.279a23.207 23.207 0 0 1 -16.885-6.662 23.253 23.253 0 0 1 -39.283.435 27.619 27.619 0 0 1 -46.839-23.7 27.6 27.6 0 0 0 46.839 15.348 23.254 23.254 0 0 0 39.283-.436 23.257 23.257 0 0 0 39.178-12.4 22.018 22.018 0 0 1 .371 3.581 23.247 23.247 0 0 1 -22.664 23.834z" fill="#d9e2e9"/><path d="m35.307 36.151a1 1 0 0 1 -.542-.16 22.619 22.619 0 0 0 -7.038-3.052 1 1 0 0 1 .382-1.963 24.185 24.185 0 0 1 7.742 3.335 1 1 0 0 1 -.544 1.84z" fill="#2f3a5a"/><path d="m94.426 16.457s14.21 10.283 2.52 24.28a3.362 3.362 0 0 1 .355.351c3.384-2.2 4.276-2.394 9.027-2.11 0 0 3.323-16.278-11.902-22.521z" fill="#d9e2e9"/><path d="m67.645 90.642a24.092 24.092 0 0 1 -19.645-10.055 28.606 28.606 0 1 1 -21.008-49.587c-.083-.717-.133-1.426-.151-2.12a24.259 24.259 0 0 1 44.947-13.268 24.257 24.257 0 0 1 36.2 20.507c.017.653 0 1.328-.037 2.015a24.259 24.259 0 1 1 -20.323 42.022 24.2 24.2 0 0 1 -19.358 10.478c-.208.005-.417.008-.625.008zm-19.327-13.175.674 1.035a22.256 22.256 0 0 0 37.6-.416l.658-1.063.893.877a22.256 22.256 0 1 0 18.6-37.928l-.954-.129.092-.958a22.7 22.7 0 0 0 .1-2.717 22.257 22.257 0 0 0 -34.019-18.333l-.893.558-.511-.92a22.259 22.259 0 0 0 -41.718 11.352 22.692 22.692 0 0 0 .28 2.975l.181 1.135-1.282.023a26.607 26.607 0 1 0 19.426 45.384z" fill="#2f3a5a"/><path d="m97.3 41.738a1 1 0 0 1 -.367-1.931 27.679 27.679 0 0 1 9.974-1.826 1 1 0 0 1 -.064 2 26.038 26.038 0 0 0 -9.178 1.688 1 1 0 0 1 -.365.069z" fill="#2f3a5a"/><path d="m20.32 75.971h91.541v37.508h-91.541z" fill="#c1cdd3"/><path d="m111.861 114.479h-91.541a1 1 0 0 1 -1-1v-37.508a1 1 0 0 1 1-1h91.541a1 1 0 0 1 1 1v37.508a1 1 0 0 1 -1 1zm-90.541-2h89.541v-35.508h-89.541z" fill="#2f3a5a"/><path d="m26.357 81.65h6.403v6.403h-6.403z" fill="#9297ab"/><path d="m32.762 81.648v1.617h-4.741v4.791h-1.662v-6.408z" fill="#c8cbd2"/><path d="m32.76 89.053h-6.4a1 1 0 0 1 -1-1v-6.4a1 1 0 0 1 1-1h6.4a1 1 0 0 1 1 1v6.4a1 1 0 0 1 -1 1zm-5.4-2h4.4v-4.4h-4.4z" fill="#2f3a5a"/><path d="m36.794 81.65h6.403v6.403h-6.403z" fill="#9297ab"/><path d="m43.2 81.648v1.617h-4.741v4.791h-1.662v-6.408z" fill="#c8cbd2"/><path d="m43.2 89.053h-6.4a1 1 0 0 1 -1-1v-6.4a1 1 0 0 1 1-1h6.4a1 1 0 0 1 1 1v6.4a1 1 0 0 1 -1 1zm-5.4-2h4.4v-4.4h-4.4z" fill="#2f3a5a"/><path d="m47.232 81.65h6.403v6.403h-6.403z" fill="#9297ab"/><path d="m53.637 81.648v1.617h-4.741v4.791h-1.662v-6.408z" fill="#c8cbd2"/><path d="m53.635 89.053h-6.4a1 1 0 0 1 -1-1v-6.4a1 1 0 0 1 1-1h6.4a1 1 0 0 1 1 1v6.4a1 1 0 0 1 -1 1zm-5.4-2h4.4v-4.4h-4.4z" fill="#2f3a5a"/><path d="m57.669 81.65h6.403v6.403h-6.403z" fill="#9297ab"/><path d="m64.075 81.648v1.617h-4.741v4.791h-1.662v-6.408z" fill="#c8cbd2"/><path d="m64.072 89.053h-6.4a1 1 0 0 1 -1-1v-6.4a1 1 0 0 1 1-1h6.4a1 1 0 0 1 1 1v6.4a1 1 0 0 1 -1 1zm-5.4-2h4.4v-4.4h-4.4z" fill="#2f3a5a"/><path d="m68.107 81.65h6.403v6.403h-6.403z" fill="#9297ab"/><path d="m74.512 81.648v1.617h-4.741v4.791h-1.662v-6.408z" fill="#c8cbd2"/><path d="m74.51 89.053h-6.4a1 1 0 0 1 -1-1v-6.4a1 1 0 0 1 1-1h6.4a1 1 0 0 1 1 1v6.4a1 1 0 0 1 -1 1zm-5.4-2h4.4v-4.4h-4.4z" fill="#2f3a5a"/><path d="m78.544 81.65h6.403v6.403h-6.403z" fill="#9297ab"/><path d="m84.949 81.648v1.617h-4.741v4.791h-1.662v-6.408z" fill="#c8cbd2"/><path d="m84.947 89.053h-6.4a1 1 0 0 1 -1-1v-6.4a1 1 0 0 1 1-1h6.4a1 1 0 0 1 1 1v6.4a1 1 0 0 1 -1 1zm-5.4-2h4.4v-4.4h-4.4z" fill="#2f3a5a"/><path d="m88.981 81.65h6.403v6.403h-6.403z" fill="#9297ab"/><path d="m95.387 81.648v1.617h-4.741v4.791h-1.662v-6.408z" fill="#c8cbd2"/><path d="m95.385 89.053h-6.4a1 1 0 0 1 -1-1v-6.4a1 1 0 0 1 1-1h6.4a1 1 0 0 1 1 1v6.4a1 1 0 0 1 -1 1zm-5.4-2h4.4v-4.4h-4.4z" fill="#2f3a5a"/><path d="m99.419 81.65h6.403v6.403h-6.403z" fill="#9297ab"/><path d="m105.824 81.648v1.617h-4.741v4.791h-1.662v-6.408z" fill="#c8cbd2"/><path d="m105.822 89.053h-6.4a1 1 0 0 1 -1-1v-6.4a1 1 0 0 1 1-1h6.4a1 1 0 0 1 1 1v6.4a1 1 0 0 1 -1 1zm-5.4-2h4.4v-4.4h-4.4z" fill="#2f3a5a"/><path d="m26.357 91.375h6.403v6.403h-6.403z" fill="#9297ab"/><path d="m32.762 91.373v1.617h-4.741v4.791h-1.662v-6.408z" fill="#c8cbd2"/><path d="m32.76 98.779h-6.4a1 1 0 0 1 -1-1v-6.4a1 1 0 0 1 1-1h6.4a1 1 0 0 1 1 1v6.4a1 1 0 0 1 -1 1zm-5.4-2h4.4v-4.4h-4.4z" fill="#2f3a5a"/><path d="m36.794 91.375h6.403v6.403h-6.403z" fill="#9297ab"/><path d="m43.2 91.373v1.617h-4.741v4.791h-1.662v-6.408z" fill="#c8cbd2"/><path d="m43.2 98.779h-6.4a1 1 0 0 1 -1-1v-6.4a1 1 0 0 1 1-1h6.4a1 1 0 0 1 1 1v6.4a1 1 0 0 1 -1 1zm-5.4-2h4.4v-4.4h-4.4z" fill="#2f3a5a"/><path d="m47.232 91.375h6.403v6.403h-6.403z" fill="#9297ab"/><path d="m53.637 91.373v1.617h-4.741v4.791h-1.662v-6.408z" fill="#c8cbd2"/><path d="m53.635 98.779h-6.4a1 1 0 0 1 -1-1v-6.4a1 1 0 0 1 1-1h6.4a1 1 0 0 1 1 1v6.4a1 1 0 0 1 -1 1zm-5.4-2h4.4v-4.4h-4.4z" fill="#2f3a5a"/><path d="m57.669 91.375h6.403v6.403h-6.403z" fill="#9297ab"/><path d="m64.075 91.373v1.617h-4.741v4.791h-1.662v-6.408z" fill="#c8cbd2"/><path d="m64.072 98.779h-6.4a1 1 0 0 1 -1-1v-6.4a1 1 0 0 1 1-1h6.4a1 1 0 0 1 1 1v6.4a1 1 0 0 1 -1 1zm-5.4-2h4.4v-4.4h-4.4z" fill="#2f3a5a"/><path d="m68.107 91.375h6.403v6.403h-6.403z" fill="#9297ab"/><path d="m74.512 91.373v1.617h-4.741v4.791h-1.662v-6.408z" fill="#c8cbd2"/><path d="m74.51 98.779h-6.4a1 1 0 0 1 -1-1v-6.4a1 1 0 0 1 1-1h6.4a1 1 0 0 1 1 1v6.4a1 1 0 0 1 -1 1zm-5.4-2h4.4v-4.4h-4.4z" fill="#2f3a5a"/><path d="m78.544 91.375h6.403v6.403h-6.403z" fill="#9297ab"/><path d="m84.949 91.373v1.617h-4.741v4.791h-1.662v-6.408z" fill="#c8cbd2"/><path d="m84.947 98.779h-6.4a1 1 0 0 1 -1-1v-6.4a1 1 0 0 1 1-1h6.4a1 1 0 0 1 1 1v6.4a1 1 0 0 1 -1 1zm-5.4-2h4.4v-4.4h-4.4z" fill="#2f3a5a"/><path d="m88.981 91.375h6.403v6.403h-6.403z" fill="#9297ab"/><path d="m95.387 91.373v1.617h-4.741v4.791h-1.662v-6.408z" fill="#c8cbd2"/><path d="m95.385 98.779h-6.4a1 1 0 0 1 -1-1v-6.4a1 1 0 0 1 1-1h6.4a1 1 0 0 1 1 1v6.4a1 1 0 0 1 -1 1zm-5.4-2h4.4v-4.4h-4.4z" fill="#2f3a5a"/><path d="m99.419 91.375h6.403v6.403h-6.403z" fill="#9297ab"/><path d="m105.824 91.373v1.617h-4.741v4.791h-1.662v-6.408z" fill="#c8cbd2"/><path d="m105.822 98.779h-6.4a1 1 0 0 1 -1-1v-6.4a1 1 0 0 1 1-1h6.4a1 1 0 0 1 1 1v6.4a1 1 0 0 1 -1 1zm-5.4-2h4.4v-4.4h-4.4z" fill="#2f3a5a"/><path d="m26.357 101.101h6.403v6.403h-6.403z" fill="#9297ab"/><path d="m32.762 101.099v1.617h-4.741v4.791h-1.662v-6.408z" fill="#c8cbd2"/><path d="m32.76 108.5h-6.4a1 1 0 0 1 -1-1v-6.4a1 1 0 0 1 1-1h6.4a1 1 0 0 1 1 1v6.4a1 1 0 0 1 -1 1zm-5.4-2h4.4v-4.4h-4.4z" fill="#2f3a5a"/><path d="m36.794 101.101h6.403v6.403h-6.403z" fill="#9297ab"/><path d="m43.2 101.099v1.617h-4.741v4.791h-1.662v-6.408z" fill="#c8cbd2"/><path d="m43.2 108.5h-6.4a1 1 0 0 1 -1-1v-6.4a1 1 0 0 1 1-1h6.4a1 1 0 0 1 1 1v6.4a1 1 0 0 1 -1 1zm-5.4-2h4.4v-4.4h-4.4z" fill="#2f3a5a"/><path d="m47.232 101.101h27.1v6.403h-27.1z" fill="#9297ab"/><path d="m74.331 101.099v1.617h-25.093v4.791h-1.997v-6.408z" fill="#c8cbd2"/><path d="m74.51 108.5h-27.278a1 1 0 0 1 -1-1v-6.4a1 1 0 0 1 1-1h27.278a1 1 0 0 1 1 1v6.4a1 1 0 0 1 -1 1zm-26.278-2h25.278v-4.4h-25.278z" fill="#2f3a5a"/><path d="m78.544 101.101h6.403v6.403h-6.403z" fill="#9297ab"/><path d="m84.949 101.099v1.617h-4.741v4.791h-1.662v-6.408z" fill="#c8cbd2"/><path d="m84.947 108.5h-6.4a1 1 0 0 1 -1-1v-6.4a1 1 0 0 1 1-1h6.4a1 1 0 0 1 1 1v6.4a1 1 0 0 1 -1 1zm-5.4-2h4.4v-4.4h-4.4z" fill="#2f3a5a"/><path d="m88.981 101.101h6.403v6.403h-6.403z" fill="#9297ab"/><path d="m95.387 101.099v1.617h-4.741v4.791h-1.662v-6.408z" fill="#c8cbd2"/><path d="m95.385 108.5h-6.4a1 1 0 0 1 -1-1v-6.4a1 1 0 0 1 1-1h6.4a1 1 0 0 1 1 1v6.4a1 1 0 0 1 -1 1zm-5.4-2h4.4v-4.4h-4.4z" fill="#2f3a5a"/><path d="m99.419 101.101h6.403v6.403h-6.403z" fill="#9297ab"/><path d="m105.824 101.099v1.617h-4.741v4.791h-1.662v-6.408z" fill="#c8cbd2"/><g fill="#2f3a5a"><path d="m105.822 108.5h-6.4a1 1 0 0 1 -1-1v-6.4a1 1 0 0 1 1-1h6.4a1 1 0 0 1 1 1v6.4a1 1 0 0 1 -1 1zm-5.4-2h4.4v-4.4h-4.4z"/><path d="m65.927 76.971a1 1 0 0 1 -1-1v-4.15a4.7 4.7 0 0 1 4.694-4.694h24.272a4.683 4.683 0 0 0 0-9.366h-51.225a4.7 4.7 0 0 1 -4.694-4.694v-7.335a1 1 0 0 1 2 0v7.335a2.7 2.7 0 0 0 2.694 2.694h51.225a6.683 6.683 0 0 1 0 13.366h-24.272a2.7 2.7 0 0 0 -2.694 2.694v4.15a1 1 0 0 1 -1 1z"/></g></svg>