<svg id="icon" height="512" viewBox="0 0 128 128" width="512" xmlns="http://www.w3.org/2000/svg"><path d="m126.987 60.942a26.449 26.449 0 0 0 -9.9-19.911 13.457 13.457 0 0 0 -17.12-18.283 26.506 26.506 0 0 0 -43.837-4.469 21.885 21.885 0 0 0 -35.804 17.521c.007.249.043.49.058.736a26.513 26.513 0 1 0 23.816 46.145 26.508 26.508 0 0 0 40.906.607 26.511 26.511 0 0 0 41.885-22.346z" fill="#f0f5f9"/><g fill="#c1cdd3"><path d="m41.945 84.328a26.528 26.528 0 0 1 -29.8-.644 26.535 26.535 0 0 0 23.592-5 26.826 26.826 0 0 0 6.208 5.644z"/><path d="m76.638 79.294a26.7 26.7 0 0 0 8.457 4 26.486 26.486 0 0 1 -35.538 4.446 26.555 26.555 0 0 0 27.081-8.446z"/><path d="m85.106 83.284c.011.011.022.011.034.022a.067.067 0 0 1 -.04-.006z"/></g><path d="m126.989 60.947c-.017-.606-.061-1.205-.118-1.8-.016-.16-.036-.318-.054-.477-.053-.458-.116-.912-.192-1.363-.024-.146-.047-.292-.074-.437a26.172 26.172 0 0 0 -.883-3.463c-.025-.077-.053-.152-.079-.229q-.254-.747-.55-1.474c-.034-.083-.067-.166-.1-.248a26.229 26.229 0 0 0 -1.622-3.232l-.008-.013c-.3-.5-.617-1-.947-1.478-.017-.025-.032-.052-.049-.076v.007a26.7 26.7 0 0 0 -5.225-5.63 13.459 13.459 0 0 0 -11.024-19.169 13.383 13.383 0 0 1 2.556 15.168 26.506 26.506 0 0 1 5.158 35.817 26.5 26.5 0 0 1 -32.65 1.477 26.507 26.507 0 0 1 -40.9-.611 26.51 26.51 0 0 1 -38.539-5.59 26.525 26.525 0 0 0 42.511 14.558 26.5 26.5 0 0 0 40.9.6l.034.022c.095.068.2.126.294.193.468.325.941.645 1.431.94a26.23 26.23 0 0 0 14.383 3.761 26.507 26.507 0 0 0 25.747-27.253z" fill="#d9e2e9"/><path d="m64.875 93.635a27.277 27.277 0 0 1 -20.828-9.568 27.239 27.239 0 0 1 -15.747 5.514 27.515 27.515 0 0 1 -8.969-53.772 22.885 22.885 0 0 1 36.669-18.909 27.5 27.5 0 0 1 44.432 4.618 14.311 14.311 0 0 1 4.059-.713 14.5 14.5 0 0 1 14.889 14.067 14.272 14.272 0 0 1 -1.071 5.87 27.48 27.48 0 0 1 9.681 20.172 27.546 27.546 0 0 1 -26.724 28.286 27.2 27.2 0 0 1 -16-4.582 27.566 27.566 0 0 1 -19.584 9.008q-.404.009-.807.009zm-20.675-11.954a.973.973 0 0 1 .107.006 1 1 0 0 1 .673.369 25.507 25.507 0 0 0 39.364.584 1 1 0 0 1 1.343-.166 25.288 25.288 0 0 0 15.522 4.726 25.544 25.544 0 0 0 24.779-26.23 25.49 25.49 0 0 0 -9.529-19.16 1 1 0 0 1 -.277-1.206 12.475 12.475 0 0 0 -11.638-17.8 12.454 12.454 0 0 0 -4.212.874 1 1 0 0 1 -1.249-.461 25.506 25.506 0 0 0 -42.183-4.3 1 1 0 0 1 -1.405.134 20.885 20.885 0 0 0 -34.169 16.725c0 .12.016.24.028.359s.021.228.028.344a1 1 0 0 1 -.73 1.024 25.514 25.514 0 1 0 22.914 44.397 1 1 0 0 1 .634-.219z" fill="#2f3a5a"/><path d="m1.01 63.832a1 1 0 0 1 -1-.972 27.546 27.546 0 0 1 26.722-28.284 1 1 0 1 1 .057 2 25.544 25.544 0 0 0 -24.779 26.224 1 1 0 0 1 -.971 1.028z" fill="#2f3a5a"/><path d="m101.237 89.2a1 1 0 0 1 -.028-2 25.517 25.517 0 0 0 4.723-50.435 1 1 0 0 1 .426-1.954 27.517 27.517 0 0 1 -5.092 54.389z" fill="#2f3a5a"/><rect fill="#9297ab" height="56.29" rx="2.393" width="79.343" x="24.28" y="55.902"/><path d="m101.229 113.192h-74.556a3.4 3.4 0 0 1 -3.393-3.392v-51.5a3.4 3.4 0 0 1 3.393-3.4h74.556a3.4 3.4 0 0 1 3.394 3.393v51.5a3.4 3.4 0 0 1 -3.394 3.399zm-74.556-56.292a1.4 1.4 0 0 0 -1.393 1.4v51.5a1.4 1.4 0 0 0 1.393 1.393h74.556a1.4 1.4 0 0 0 1.394-1.393v-51.5a1.4 1.4 0 0 0 -1.394-1.393z" fill="#2f3a5a"/><path d="m29.577 59.882h68.748a1.316 1.316 0 0 1 1.317 1.318v40.914a1.317 1.317 0 0 1 -1.317 1.317h-68.748a1.316 1.316 0 0 1 -1.316-1.316v-40.915a1.316 1.316 0 0 1 1.316-1.318z" fill="#6bb3d9"/><path d="m106.265 108.4h-84.53a1.847 1.847 0 0 0 -1.646 2.686l1.224 2.4a3.864 3.864 0 0 0 3.442 2.108h78.49a3.864 3.864 0 0 0 3.442-2.108l1.223-2.4a1.847 1.847 0 0 0 -1.645-2.686z" fill="#9297ab"/><g opacity=".5"><path d="m107.911 111.09-1.225 2.395a3.855 3.855 0 0 1 -3.438 2.108h-78.5a3.855 3.855 0 0 1 -3.438-2.108l-.763-1.491a3.867 3.867 0 0 0 2.514.931h78.488a3.87 3.87 0 0 0 3.439-2.108l1.225-2.4c0-.007.007-.007.007-.014h.042a1.849 1.849 0 0 1 1.649 2.687z" fill="#707583"/></g><path d="m103.245 116.6h-78.49a4.843 4.843 0 0 1 -4.333-2.654l-1.223-2.4a2.847 2.847 0 0 1 2.536-4.141h84.531a2.847 2.847 0 0 1 2.536 4.14l-1.224 2.4a4.843 4.843 0 0 1 -4.333 2.655zm-81.51-7.2a.848.848 0 0 0 -.755 1.232l1.224 2.4a2.849 2.849 0 0 0 2.551 1.563h78.49a2.85 2.85 0 0 0 2.551-1.562l1.224-2.4a.848.848 0 0 0 -.754-1.232z" fill="#2f3a5a"/><g opacity=".5"><path d="m73.194 59.882-37.308 43.548h-3.796l37.309-43.548z" fill="#dbe2eb"/></g><g opacity=".5"><path d="m86.288 59.882-37.308 43.548h-6.757l37.308-43.548z" fill="#dbe2eb"/></g><path d="m98.322 104.432h-68.742a2.321 2.321 0 0 1 -2.318-2.318v-40.914a2.321 2.321 0 0 1 2.318-2.318h68.742a2.321 2.321 0 0 1 2.319 2.318v40.912a2.321 2.321 0 0 1 -2.319 2.32zm-68.742-43.548a.318.318 0 0 0 -.318.318v40.912a.318.318 0 0 0 .318.318h68.742a.318.318 0 0 0 .319-.318v-40.914a.318.318 0 0 0 -.319-.318z" fill="#2f3a5a"/><path d="m57.038 108.403h13.925v2.95h-13.925z" fill="#d9e2e9"/><path d="m70.962 112.354h-13.924a1 1 0 0 1 -1-1v-2.954a1 1 0 0 1 1-1h13.924a1 1 0 0 1 1 1v2.951a1 1 0 0 1 -1 1.003zm-12.924-2h11.924v-.954h-11.924z" fill="#2f3a5a"/></svg>