<svg id="icon" height="512" viewBox="0 0 128 128" width="512" xmlns="http://www.w3.org/2000/svg"><path d="m106.876 45.764a23.223 23.223 0 0 0 -23.727-25.507 23.147 23.147 0 0 0 -11.717 3.513 23.25 23.25 0 0 0 -43.3 14.971c-.072 0-.142 0-.214 0a27.609 27.609 0 1 0 20.234 47.09 23.256 23.256 0 0 0 39.29-.435 23.256 23.256 0 1 0 19.433-39.632z" fill="#f0f5f9"/><path d="m104.324 92.062a23.207 23.207 0 0 1 -16.885-6.662 23.254 23.254 0 0 1 -39.283.436 27.619 27.619 0 0 1 -46.839-23.696 27.6 27.6 0 0 0 46.839 15.344 23.254 23.254 0 0 0 39.283-.436 23.256 23.256 0 0 0 39.178-12.4 22.029 22.029 0 0 1 .371 3.581 23.247 23.247 0 0 1 -22.664 23.833z" fill="#d9e2e9"/><path d="m35.307 42.934a.992.992 0 0 1 -.542-.161 22.573 22.573 0 0 0 -7.038-3.05 1 1 0 0 1 .382-1.963 24.169 24.169 0 0 1 7.742 3.334 1 1 0 0 1 -.544 1.84z" fill="#2f3a5a"/><path d="m94.426 23.24s14.21 10.283 2.52 24.281a3.259 3.259 0 0 1 .355.35c3.384-2.205 4.276-2.394 9.027-2.11 0 0 3.323-16.281-11.902-22.521z" fill="#d9e2e9"/><path d="m67.645 97.426a24.093 24.093 0 0 1 -19.645-10.056 28.606 28.606 0 1 1 -21-49.592c-.083-.716-.133-1.426-.151-2.12a24.259 24.259 0 0 1 44.939-13.258 24.256 24.256 0 0 1 36.2 20.506c.017.655 0 1.329-.037 2.016a24.26 24.26 0 1 1 -20.323 42.017 24.191 24.191 0 0 1 -19.358 10.479c-.208.005-.417.008-.625.008zm-19.327-13.176.674 1.036a22.257 22.257 0 0 0 37.6-.416l.658-1.063.893.877a22.257 22.257 0 1 0 18.6-37.929l-.954-.129.092-.958a22.693 22.693 0 0 0 .1-2.716 22.257 22.257 0 0 0 -34.019-18.334l-.893.557-.511-.92a22.259 22.259 0 0 0 -41.718 11.352 22.738 22.738 0 0 0 .28 2.977l.183 1.142-1.276.015a26.608 26.608 0 0 0 -17.756 45.881 26.6 26.6 0 0 0 37.174-.5z" fill="#2f3a5a"/><path d="m97.3 48.521a1 1 0 0 1 -.367-1.931 27.627 27.627 0 0 1 9.974-1.825 1 1 0 0 1 .966 1.03.966.966 0 0 1 -1.03.968 26.174 26.174 0 0 0 -9.178 1.688 1 1 0 0 1 -.365.07z" fill="#2f3a5a"/><circle cx="63.998" cy="85.157" fill="#8cc0f3" r="31.049" transform="matrix(.383 -.924 .924 .383 -39.167 111.695)"/><path d="m95.051 85.159a31.05 31.05 0 0 1 -49.72 24.81 31.056 31.056 0 0 0 30.51-53.52 31.054 31.054 0 0 1 19.21 28.71z" fill="#4fa4d1"/><g fill="#2f3a5a"><path d="m64 117.206a32.05 32.05 0 1 1 32.05-32.049 32.085 32.085 0 0 1 -32.05 32.049zm0-62.1a30.05 30.05 0 1 0 30.05 30.05 30.084 30.084 0 0 0 -30.05-30.049z"/><path d="m64 117.206c-8.976 0-16.006-14.077-16.006-32.049s7.028-32.05 16.006-32.05 16.007 14.079 16.007 32.05-7.033 32.049-16.007 32.049zm0-62.1c-7.592 0-14.006 13.761-14.006 30.05s6.412 30.05 14.006 30.05 14.007-13.761 14.007-30.049-6.417-30.05-14.007-30.05z"/><path d="m64 71.449c-9.324 0-18.15-1.987-24.216-5.452a1 1 0 0 1 .992-1.736c5.773 3.3 14.238 5.188 23.224 5.188s17.451-1.891 23.224-5.188a1 1 0 0 1 .99 1.739c-6.066 3.462-14.893 5.449-24.214 5.449z"/><path d="m88.2 105.609a1 1 0 0 1 -.513-.142c-5.787-3.467-14.424-5.458-23.687-5.458s-17.9 1.991-23.688 5.458a1 1 0 1 1 -1.028-1.715c6.09-3.65 15.1-5.743 24.714-5.743s18.624 2.093 24.714 5.743a1 1 0 0 1 -.515 1.857z"/><path d="m95.048 86.157h-62.1a1 1 0 1 1 0-2h62.1a1 1 0 0 1 0 2z"/></g></svg>