<svg id="icon" height="512" viewBox="0 0 128 128" width="512" xmlns="http://www.w3.org/2000/svg"><path d="m21.124 40.084a23.223 23.223 0 0 1 23.727-25.507 23.138 23.138 0 0 1 11.717 3.513 23.25 23.25 0 0 1 43.3 14.971h.214a27.609 27.609 0 1 1 -20.234 47.09 23.258 23.258 0 0 1 -39.29-.435 23.256 23.256 0 1 1 -19.434-39.632z" fill="#f0f5f9"/><path d="m23.676 86.382a23.207 23.207 0 0 0 16.885-6.662 23.253 23.253 0 0 0 39.283.435 27.619 27.619 0 0 0 46.839-23.695 27.6 27.6 0 0 1 -46.839 15.34 23.254 23.254 0 0 1 -39.283-.436 23.257 23.257 0 0 1 -39.178-12.4 22.006 22.006 0 0 0 -.371 3.58 23.248 23.248 0 0 0 22.664 23.838z" fill="#d9e2e9"/><path d="m89.974 39.3a1 1 0 0 1 -.66-1.752 24.8 24.8 0 0 1 10.577-5.472 1 1 0 0 1 .381 1.963 23.2 23.2 0 0 0 -9.639 5.013.994.994 0 0 1 -.659.248z" fill="#2f3a5a"/><path d="m33.574 17.56s-14.712 9.954-3.022 23.952a3.372 3.372 0 0 0 -.356.351c-3.383-2.206-3.657-1.234-8.524-1.782 0 0-3.323-16.281 11.902-22.521z" fill="#d9e2e9"/><path d="m60.355 91.745q-.312 0-.625-.008a24.192 24.192 0 0 1 -19.358-10.478 24.257 24.257 0 1 1 -20.318-42.022c-.041-.69-.054-1.356-.037-2.016a24.26 24.26 0 0 1 36.2-20.507 24.258 24.258 0 0 1 44.946 13.264c-.017.691-.068 1.4-.15 2.12a28.608 28.608 0 1 1 -21.013 49.592 24.093 24.093 0 0 1 -19.645 10.055zm-19.606-13.619.658 1.063a22.256 22.256 0 0 0 37.6.416l.674-1.035.872.875a26.605 26.605 0 1 0 19.5-45.384h-.209l-1.144-.023.18-1.138a22.233 22.233 0 0 0 -21.416-25.782c-.188 0-.377-.007-.565-.007a22.209 22.209 0 0 0 -19.457 11.464l-.51.92-.893-.557a22.245 22.245 0 0 0 -33.921 21.051l.092.957-.953.129a22.258 22.258 0 1 0 18.599 37.925z" fill="#2f3a5a"/><path d="m29.81 42.513a1.017 1.017 0 0 1 -.328-.055 26.321 26.321 0 0 0 -8.327-1.375 1 1 0 0 1 -.065-2 27.771 27.771 0 0 1 9.047 1.483 1 1 0 0 1 -.327 1.946z" fill="#2f3a5a"/><path d="m29.208 59.101h68.983v42.714h-68.983z" fill="#ffc943"/><path d="m98.19 59.1v42.72h-68.98v-4.72h64.58v-38z" fill="#f7b521"/><g fill="#2f3a5a"><path d="m98.19 102.815h-68.982a1 1 0 0 1 -1-1v-42.715a1 1 0 0 1 1-1h68.982a1 1 0 0 1 1 1v42.714a1 1 0 0 1 -1 1.001zm-67.982-2h66.982v-40.715h-66.982z"/><path d="m63.7 87.38a1 1 0 0 1 -.62-.215l-34.49-27.281a1 1 0 1 1 1.24-1.568l33.87 26.789 33.87-26.789a1 1 0 1 1 1.241 1.568l-34.491 27.281a1 1 0 0 1 -.62.215z"/><path d="m29.211 102.82a1 1 0 0 1 -.611-1.792l27.339-21.09a1 1 0 1 1 1.221 1.584l-27.34 21.09a.993.993 0 0 1 -.609.208z"/><path d="m98.189 102.82a1 1 0 0 1 -.609-.208l-27.341-21.09a1 1 0 0 1 1.221-1.584l27.34 21.09a1 1 0 0 1 -.612 1.792z"/></g></svg>